<svg xmlns="http://www.w3.org/2000/svg" viewBox="0 0 800 400"
     font-family="system-ui, sans-serif" font-size="14">
  <text x="400" y="30" text-anchor="middle" font-size="18" font-weight="600">Cycle A — agentserver 注册 / 续约</text>

  <g transform="translate(400,220)">
    <g>
      <circle cx="0" cy="-130" r="50" fill="#fbf9f4" stroke="#2c4a7c" stroke-width="1.5"/>
      <text x="0" y="-128" text-anchor="middle" font-size="12">tunnel WS</text>
      <text x="0" y="-112" text-anchor="middle" font-size="11" fill="#555">handshake</text>
    </g>
    <g>
      <circle cx="124" cy="-40" r="50" fill="#fbf9f4" stroke="#2c4a7c" stroke-width="1.5"/>
      <text x="124" y="-38" text-anchor="middle" font-size="12">401</text>
      <text x="124" y="-22" text-anchor="middle" font-size="11" fill="#555">token 失效</text>
    </g>
    <g>
      <circle cx="76" cy="100" r="50" fill="#fbf9f4" stroke="#2c4a7c" stroke-width="1.5"/>
      <text x="76" y="98" text-anchor="middle" font-size="12">device-code</text>
      <text x="76" y="114" text-anchor="middle" font-size="11" fill="#555">浏览器批准</text>
    </g>
    <g>
      <circle cx="-76" cy="100" r="50" fill="#fbf9f4" stroke="#2c4a7c" stroke-width="1.5"/>
      <text x="-76" y="98" text-anchor="middle" font-size="12">新 token</text>
      <text x="-76" y="114" text-anchor="middle" font-size="11" fill="#555">写回 config</text>
    </g>
    <g>
      <circle cx="-124" cy="-40" r="50" fill="#fbf9f4" stroke="#2c4a7c" stroke-width="1.5"/>
      <text x="-124" y="-38" text-anchor="middle" font-size="12">reconnect</text>
      <text x="-124" y="-22" text-anchor="middle" font-size="11" fill="#555">成功</text>
    </g>

    <g stroke="#2c4a7c" stroke-width="1.5" fill="none" marker-end="url(#arrA)">
      <path d="M 35,-100 Q 100,-100 100,-60"/>
      <path d="M 100,-10 Q 130,30 100,80"/>
      <path d="M 30,130 Q -30,130 -30,130"/>
      <path d="M -100,80 Q -130,30 -100,-10"/>
      <path d="M -100,-60 Q -100,-100 -35,-100"/>
    </g>
    <defs>
      <marker id="arrA" markerWidth="8" markerHeight="8" refX="7" refY="4" orient="auto">
        <path d="M0,0 L8,4 L0,8 Z" fill="#2c4a7c"/>
      </marker>
    </defs>
  </g>
</svg>
