<svg xmlns="http://www.w3.org/2000/svg" viewBox="0 0 800 400"
     font-family="system-ui, sans-serif" font-size="14">
  <text x="400" y="30" text-anchor="middle" font-size="18" font-weight="600">driver / slave / observer 三角</text>

  <circle cx="400" cy="100" r="55" fill="#fbf9f4" stroke="#2c4a7c" stroke-width="2"/>
  <text x="400" y="95" text-anchor="middle" font-weight="600">driver</text>
  <text x="400" y="115" text-anchor="middle" font-size="11" fill="#555">user-facing</text>

  <circle cx="600" cy="320" r="55" fill="#fbf9f4" stroke="#2c4a7c" stroke-width="2"/>
  <text x="600" y="315" text-anchor="middle" font-weight="600">slave</text>
  <text x="600" y="335" text-anchor="middle" font-size="11" fill="#555">execution</text>

  <circle cx="200" cy="320" r="55" fill="#fbf9f4" stroke="#2c4a7c" stroke-width="2"/>
  <text x="200" y="315" text-anchor="middle" font-weight="600">observer</text>
  <text x="200" y="335" text-anchor="middle" font-size="11" fill="#555">telemetry + replay</text>

  <line x1="445" y1="135" x2="560" y2="290" stroke="#2c4a7c" stroke-width="1.5" marker-end="url(#arr)"/>
  <text x="540" y="195" font-size="11" fill="#2c4a7c">DelegateTask</text>
  <text x="540" y="210" font-size="11" fill="#2c4a7c">+ TASK_CONTRACT</text>

  <line x1="555" y1="285" x2="440" y2="130" stroke="#555" stroke-width="1" marker-end="url(#arr2)"/>
  <text x="380" y="220" font-size="11" fill="#555">peer-proxy /files/blob/&lt;sha&gt;</text>

  <line x1="345" y1="135" x2="245" y2="290" stroke="#888" stroke-width="1" stroke-dasharray="4,3" marker-end="url(#arr3)"/>
  <text x="245" y="200" font-size="11" fill="#555">events</text>

  <line x1="555" y1="335" x2="265" y2="335" stroke="#888" stroke-width="1" stroke-dasharray="4,3" marker-end="url(#arr3)"/>
  <text x="400" y="355" text-anchor="middle" font-size="11" fill="#555">events + artifacts</text>

  <defs>
    <marker id="arr" markerWidth="8" markerHeight="8" refX="7" refY="4" orient="auto">
      <path d="M0,0 L8,4 L0,8 Z" fill="#2c4a7c"/>
    </marker>
    <marker id="arr2" markerWidth="8" markerHeight="8" refX="7" refY="4" orient="auto">
      <path d="M0,0 L8,4 L0,8 Z" fill="#555"/>
    </marker>
    <marker id="arr3" markerWidth="8" markerHeight="8" refX="7" refY="4" orient="auto">
      <path d="M0,0 L8,4 L0,8 Z" fill="#888"/>
    </marker>
  </defs>
</svg>
